<?xml version="1.0" standalone="no"?>
<!DOCTYPE svg PUBLIC "-//W3C//DTD SVG 20010904//EN"
 "http://www.w3.org/TR/2001/REC-SVG-20010904/DTD/svg10.dtd">
<svg version="1.0" xmlns="http://www.w3.org/2000/svg"
 width="537.000000pt" height="244.000000pt" viewBox="0 0 667.000000 374.000000"
 preserveAspectRatio="xMidYMid meet">

<g transform="translate(0.000000,374.000000) scale(0.100000,-0.100000)"
fill="#e2dede" stroke="none">
<path d="M2631 3542 c-221 -226 -429 -685 -508 -1122 -25 -135 -27 -166 -27
-450 -1 -324 5 -395 50 -600 67 -297 189 -593 342 -825 94 -143 151 -209 203
-235 46 -24 67 -25 97 -4 35 24 28 65 -39 229 -147 361 -205 596 -244 989 -61
627 11 1302 184 1711 16 39 48 113 70 164 60 138 63 155 39 186 -15 19 -29 25
-60 25 -37 0 -47 -6 -107 -68z"/>
<path d="M6226 3522 c-4 -7 -75 -287 -461 -1817 -86 -341 -194 -770 -241 -954
-47 -184 -83 -340 -80 -348 4 -11 33 -13 133 -11 l127 3 97 385 c130 515 364
1440 450 1780 118 461 239 948 239 959 0 13 -256 16 -264 3z"/>
<path d="M4017 3434 c-90 -16 -130 -34 -153 -69 -39 -59 -57 -111 -563 -1650
-132 -401 -245 -754 -252 -782 -9 -46 -8 -58 8 -90 26 -55 95 -94 176 -100 83
-7 129 14 168 75 17 28 82 209 165 461 478 1465 595 1812 608 1808 11 -3 120
-325 515 -1522 122 -368 234 -695 249 -725 21 -43 36 -60 72 -78 111 -58 290
21 290 127 0 21 -7 62 -16 92 -15 54 -196 611 -364 1124 -48 149 -156 477
-239 731 -97 295 -162 477 -181 507 -17 27 -51 60 -77 77 -47 30 -48 30 -187
29 -78 0 -176 -7 -219 -15z"/>
<path d="M335 3421 c-121 -12 -154 -62 -166 -251 -10 -148 -10 -1668 -1 -2057
7 -253 8 -273 28 -300 33 -45 79 -63 163 -63 83 0 152 25 174 63 9 17 13 281
17 1144 4 902 8 1125 18 1135 10 10 120 14 517 16 l504 3 25 30 c23 28 26 39
26 115 0 92 -14 134 -53 156 -17 10 -152 13 -607 14 -322 1 -612 -1 -645 -5z"/>
<path d="M1031 2398 c-101 -50 -151 -136 -151 -259 0 -125 74 -216 206 -255
129 -37 274 45 320 181 34 97 -5 230 -85 296 -75 61 -207 78 -290 37z"/>
<path d="M4110 1811 c-75 -16 -128 -60 -173 -145 -26 -50 -28 -142 -4 -197 23
-56 82 -114 139 -139 166 -71 364 74 345 254 -16 153 -157 257 -307 227z"/>
</g>
</svg>
