<?xml version="1.0" standalone="no"?>
<!DOCTYPE svg PUBLIC "-//W3C//DTD SVG 20010904//EN"
 "http://www.w3.org/TR/2001/REC-SVG-20010904/DTD/svg10.dtd">
<svg version="1.0" xmlns="http://www.w3.org/2000/svg"
 width="2021.000000pt" height="895.000000pt" viewBox="0 0 2021.000000 895.000000"
 preserveAspectRatio="xMidYMid meet">

<g transform="translate(0.000000,895.000000) scale(0.100000,-0.100000)"
fill="#fff" stroke="none">
<path d="M1687 8933 l-1677 -3 0 -4455 0 -4455 323 0 c177 0 420 -3 539 -7
l218 -6 2 2199 3 2199 248 3 247 2 0 540 0 540 -247 2 -248 3 0 1140 0 1140
2336 3 2336 2 6 -1102 c4 -607 7 -2282 7 -3723 0 -1441 3 -2691 7 -2778 l6
-157 2360 2 2360 3 38 105 c20 58 146 406 279 775 133 369 279 774 325 900
230 638 361 1002 402 1115 25 69 133 368 240 665 107 297 215 599 241 670 l48
130 452 3 452 2 -2 563 -3 562 -242 -3 c-134 -2 -243 -1 -243 3 0 7 501 1403
522 1455 l14 34 126 -369 c70 -204 280 -820 468 -1370 188 -550 408 -1196 490
-1435 81 -239 207 -606 278 -815 151 -441 633 -1852 827 -2420 150 -440 194
-567 198 -571 1 -1 355 -4 787 -6 l785 -3 111 310 c61 171 266 738 454 1260
188 523 440 1222 560 1555 120 333 412 1145 650 1805 453 1257 584 1619 730
2025 185 515 339 943 516 1434 101 280 184 513 184 518 0 4 -264 8 -588 8
l-587 0 -167 -452 c-92 -249 -341 -925 -553 -1503 -213 -577 -442 -1201 -510
-1385 -257 -696 -1250 -3395 -1421 -3862 -99 -268 -181 -488 -184 -488 -3 0
-31 75 -62 167 -60 181 -161 477 -708 2078 -193 567 -421 1233 -505 1480 -84
248 -314 920 -510 1495 -353 1035 -571 1673 -749 2195 l-91 270 -535 3 -535 2
-24 -67 c-13 -38 -135 -378 -271 -758 -137 -379 -456 -1268 -710 -1975 -254
-707 -564 -1571 -690 -1920 -126 -349 -332 -923 -458 -1275 -127 -352 -314
-874 -417 -1160 -103 -286 -192 -532 -197 -548 l-10 -27 -822 0 c-453 0 -1087
3 -1409 7 l-587 6 0 1711 c0 941 -3 2680 -7 3864 l-6 2152 -1761 -2 c-969 -2
-2516 -4 -3439 -5z"/>
</g>
</svg>
